<svg xmlns="http://www.w3.org/2000/svg" viewBox="0 0 90.46 87.99"><defs><style>.cls-1{fill:#231f20;}</style></defs><title>cn</title><g id="Layer_2" data-name="Layer 2"><g id="Layer_1-2" data-name="Layer 1"><path class="cls-1" d="M3.71,25.8A42.32,42.32,0,0,1,13.66,12,44.71,44.71,0,0,1,28.09,3.12a48.64,48.64,0,0,1,34.28,0A44.82,44.82,0,0,1,76.8,12a42.32,42.32,0,0,1,10,13.84,43.48,43.48,0,0,1,3.71,18.25,42.75,42.75,0,0,1-13.66,32,43.63,43.63,0,0,1-14.43,8.84,49.53,49.53,0,0,1-34.28,0,43.53,43.53,0,0,1-14.43-8.84A42.75,42.75,0,0,1,0,44.05,43.48,43.48,0,0,1,3.71,25.8ZM14.61,58a33.77,33.77,0,0,0,7.06,11,32.39,32.39,0,0,0,10.54,7.18,33.72,33.72,0,0,0,25.92,0,32.28,32.28,0,0,0,10.54-7.18A34.79,34.79,0,0,0,75.8,58a35.89,35.89,0,0,0,2.65-13.9,35.93,35.93,0,0,0-2.65-13.9A34.63,34.63,0,0,0,68.67,19.2,32.31,32.31,0,0,0,58.13,12a33.72,33.72,0,0,0-25.92,0A32.42,32.42,0,0,0,21.67,19.2a33.62,33.62,0,0,0-7.06,11A36.48,36.48,0,0,0,12,44.05,36.44,36.44,0,0,0,14.61,58Zm51.06,1.24a21,21,0,0,1-4.83,5.89,20.53,20.53,0,0,1-6.48,3.65A23,23,0,0,1,46.88,70a26,26,0,0,1-10.42-2,23.33,23.33,0,0,1-8-5.53,25.51,25.51,0,0,1-5.12-8.31,28.5,28.5,0,0,1-1.82-10.3,31.23,31.23,0,0,1,1.7-10.49A24.24,24.24,0,0,1,28.21,25a22.76,22.76,0,0,1,7.89-5.53,26.35,26.35,0,0,1,10.54-2,24.82,24.82,0,0,1,7.72,1.18,20,20,0,0,1,6.42,3.48,19.29,19.29,0,0,1,4.71,5.71A22.09,22.09,0,0,1,68,35.69H58.78a10.61,10.61,0,0,0-4.24-6.48,13.23,13.23,0,0,0-7.9-2.35q-6.7,0-10.24,4.65T32.86,43.58a21.5,21.5,0,0,0,1,6.54,16.92,16.92,0,0,0,2.83,5.42,13.67,13.67,0,0,0,4.42,3.65,12.27,12.27,0,0,0,5.77,1.35A12.84,12.84,0,0,0,55,58.07a9.91,9.91,0,0,0,3.77-6.71h9.54A23.83,23.83,0,0,1,65.67,59.19Z"/></g></g></svg>