<?xml version="1.0" encoding="UTF-8" standalone="no"?>
<svg width="31px" height="18px" viewBox="0 0 31 18" version="1.1" xmlns="http://www.w3.org/2000/svg" xmlns:xlink="http://www.w3.org/1999/xlink">
    <!-- Generator: Sketch 49.2 (51160) - http://www.bohemiancoding.com/sketch -->
    <title>arena-icon</title>
    <desc>Created with Sketch.</desc>
    <defs></defs>
    <g id="Screens" stroke="none" stroke-width="1" fill="none" fill-rule="evenodd">
        <g id="Coming-Soon" transform="translate(-196.000000, -559.000000)" fill="#000000">
            <g id="arena-icon" transform="translate(195.000000, 558.000000)">
                <g transform="translate(1.100000, 1.111111)" id="Shape">
                    <path d="M30.5025511,12.4577301 L26.2328972,9.18446929 C25.9715609,8.98468531 25.9715609,8.65664001 26.2328972,8.45625667 L30.5027559,5.18379502 C30.7649114,4.98361147 30.8744843,4.64537719 30.7464786,4.43260724 C30.6182682,4.22043665 30.260262,4.14491831 29.9518196,4.2647887 L24.8746038,6.23745575 C24.5659566,6.35852485 24.2751277,6.19350327 24.2288409,5.87185106 L23.4653128,0.584567936 C23.4182068,0.263115506 23.1703878,0 22.9137621,0 C22.6583653,0 22.4107512,0.263115506 22.3648739,0.584368152 L21.6009363,5.87205085 C21.5542398,6.19370306 21.2638206,6.35832506 20.9547638,6.23765553 L15.9615197,4.29775305 C15.6518484,4.1774831 15.1474038,4.1774831 14.8385517,4.29775305 L9.84448839,6.23765553 C9.53563638,6.35832506 9.24480756,6.19370306 9.19852072,5.87205085 L8.43560709,0.584368152 C8.38850101,0.263115506 8.1410917,0 7.88549004,0 C7.62906913,0 7.3810454,0.263115506 7.33496337,0.584368152 L6.57102569,5.87205085 C6.52473885,6.19370306 6.23411484,6.35832506 5.92526282,6.23765553 L0.848251813,4.26538805 C0.539604607,4.14491831 0.182212852,4.22083622 0.0540023998,4.43280703 C-0.0740032431,4.64577675 0.0351599692,4.98421082 0.29649629,5.18399481 L4.56676454,8.45645646 C4.82830567,8.65683979 4.82830567,8.98488509 4.56676454,9.18486886 L0.29649629,12.4577301 C0.0343407331,12.6579136 -0.0742080521,13.0163261 0.0535927818,13.2536695 C0.182008043,13.4914124 0.539399798,13.5869092 0.847637386,13.4662396 L5.87918079,11.4951708 C6.18844242,11.3747011 6.4759943,11.5387238 6.51920901,11.860376 L7.2450522,17.1938092 C7.28888134,17.5148621 7.57643321,17.7777778 7.88405637,17.7777778 C8.19126992,17.7777778 8.4790266,17.5150618 8.52306054,17.1938092 L9.25013259,11.860376 C9.29314249,11.5387238 9.58192322,11.3749009 9.88954638,11.4951708 L14.8385517,13.4326759 C15.1469941,13.553745 15.6516436,13.553745 15.9602908,13.4326759 L20.9084769,11.4951708 C21.2165097,11.3747011 21.5044712,11.5387238 21.5485051,11.860376 L22.2755772,17.1938092 C22.3189967,17.5148621 22.6067534,17.7777778 22.9135573,17.7777778 C23.2211805,17.7777778 23.5089372,17.5150618 23.5525615,17.1938092 L24.2796335,11.860376 C24.3238723,11.5387238 24.6114242,11.3749009 24.9194569,11.4951708 L29.9516148,13.4662396 C30.2588283,13.5869092 30.6172441,13.4912126 30.7454546,13.2538693 C30.8738698,13.0169254 30.7647066,12.658513 30.5027559,12.4583294 L30.5025511,12.4577301 Z M19.6394802,9.22602436 L15.8791864,12.049971 C15.6160068,12.2477571 15.1842694,12.2477571 14.921909,12.049971 L11.1603864,9.22602436 C10.8974116,9.02823822 10.8953635,8.70259032 11.1562902,8.50180742 L14.9247763,5.60633815 C15.1857031,5.40555524 15.6135491,5.40555524 15.8746806,5.60633815 L19.6431667,8.50180742 C19.9047079,8.70239054 19.9026598,9.02803843 19.6390706,9.22622415 L19.6394802,9.22602436 Z" fill-rule="nonzero"></path>
                </g>
            </g>
        </g>
    </g>
</svg>