<?xml version="1.0" encoding="UTF-8" standalone="no"?>
<svg width="20px" height="20px" viewBox="0 0 20 20" version="1.1" xmlns="http://www.w3.org/2000/svg" xmlns:xlink="http://www.w3.org/1999/xlink">
    <!-- Generator: Sketch 49.2 (51160) - http://www.bohemiancoding.com/sketch -->
    <title>logo-black-home</title>
    <desc>Created with Sketch.</desc>
    <defs></defs>
    <g id="Screens" stroke="none" stroke-width="1" fill="none" fill-rule="evenodd">
        <g id="Coming-Soon" transform="translate(-155.000000, -558.000000)" fill="#000000">
            <g id="logo-black" transform="translate(155.000000, 558.000000)">
                <path d="M10,19.5333333 C4.73488539,19.5333333 0.466666667,15.2651146 0.466666667,10 C0.466666667,4.73488539 4.73488539,0.466666667 10,0.466666667 C15.2651146,0.466666667 19.5333333,4.73488539 19.5333333,10 C19.5333333,15.2651146 15.2651146,19.5333333 10,19.5333333 Z M10,16.9333333 C13.8291743,16.9333333 16.9333333,13.8291743 16.9333333,10 C16.9333333,6.17082573 13.8291743,3.06666667 10,3.06666667 C6.17082573,3.06666667 3.06666667,6.17082573 3.06666667,10 C3.06666667,13.8291743 6.17082573,16.9333333 10,16.9333333 Z" id="Oval" fill-rule="nonzero"></path>
                <path d="M10.2496999,7.09754076 C8.77230892,7.09754076 7.46138455,8.11292254 7.46138455,9.99042093 C7.46138455,11.8679193 8.77230892,12.9216174 10.2913165,12.9216174 C11.8727491,12.9216174 12.6010404,11.9062356 12.829932,11.1973842 L14.952381,11.9062356 C14.4737895,13.3622548 12.9547819,14.952381 10.2913165,14.952381 C7.31572629,14.952381 5.04761905,12.8258267 5.04761905,9.99042093 C5.04761905,7.1166989 7.31572629,5.04761905 10.2288916,5.04761905 C12.9547819,5.04761905 14.4529812,6.61858709 14.8691477,8.11292254 L12.705082,8.84093212 C12.4761905,8.0171318 11.7895158,7.09754076 10.2496999,7.09754076 Z" id="c" fill-rule="evenodd"></path>
            </g>
        </g>
    </g>
</svg>